PathFileType	4	(X/Y/Z)	Run_500 03
DataRate	CameraRate	NumFrames	NumMarkers	Units	OrigDataRate	OrigDataStartFrame	OrigNumFrames
100	100	6	42	mm	100	333	128
Frame#	Time	RASI			LPSI			RPSI			RTH1			RTH2			RTH3			LTH1			LTH2			LTH3			RTB1			RTB2			RTB3			LTB1			LTB2			LTB3			RCAL			RTOE			RMT5			LCAL			LTOE			LMT5			LACR			RACR			CLAV			C7			RUA1			RUA2			RUA3			RLEL			RMEL			LUA1			LUA2			LUA3			LLEL			LMEL			RFAsuperior			RFAradius			RFAulna			LFAsuperior			LFAradius			LFAulna			LASI		
		X1	Y1	Z1	X2	Y2	Z2	X3	Y3	Z3	X4	Y4	Z4	X5	Y5	Z5	X6	Y6	Z6	X7	Y7	Z7	X8	Y8	Z8	X9	Y9	Z9	X10	Y10	Z10	X11	Y11	Z11	X12	Y12	Z12	X13	Y13	Z13	X14	Y14	Z14	X15	Y15	Z15	X16	Y16	Z16	X17	Y17	Z17	X18	Y18	Z18	X19	Y19	Z19	X20	Y20	Z20	X21	Y21	Z21	X22	Y22	Z22	X23	Y23	Z23	X24	Y24	Z24	X25	Y25	Z25	X26	Y26	Z26	X27	Y27	Z27	X28	Y28	Z28	X29	Y29	Z29	X30	Y30	Z30	X31	Y31	Z31	X32	Y32	Z32	X33	Y33	Z33	X34	Y34	Z34	X35	Y35	Z35	X36	Y36	Z36	X37	Y37	Z37	X38	Y38	Z38	X39	Y39	Z39	X40	Y40	Z40	X41	Y41	Z41	X42	Y42	Z42	

333	  3.330000	708.772832	997.170443	-209.631579	528.635555	1071.963808	-367.816858	528.742207	1068.515174	-284.266004	697.381858	878.246022	-148.225299	828.176411	812.787906	-172.738630	836.782431	698.540985	-177.410613	605.782099	871.099574	-516.436553	642.707541	742.219393	-499.153453	529.047496	627.275107	-488.206933	822.919628	520.241066	-253.858346	712.522570	513.205655	-198.011168	633.527256	451.609457	-260.962538	494.928311	393.834123	-424.999006	396.796914	362.473577	-480.669138	360.345560	236.849832	-403.540498	455.581289	505.566624	-268.767086	549.563704	292.015903	-281.042521	512.799405	301.155145	-192.887568	167.824178	177.147766	-368.883505	362.112820	 65.077968	-397.777338	310.844278	 51.374761	-473.671091	735.178292	1491.894028	-513.417873	675.206754	1494.570157	-170.643680	768.446595	1455.806700	-306.685213	640.634174	1533.891116	-366.587650	584.157597	1413.046116	-96.542013	500.532195	1359.021073	-138.940288	508.442371	1325.520103	-67.801970	458.398486	1243.660511	-35.640735	433.454253	1232.139316	-111.428745	726.911761	1396.752744	-618.385072	673.426213	1307.588795	-634.177043	738.360686	1292.284177	-678.116218	765.649507	1216.164490	-717.875367	709.761127	1165.968138	-692.834458	474.831735	1163.054866	-23.941188	590.348141	998.573854	-60.221673	523.777391	975.797394	-50.766560	853.708168	1179.259680	-633.990998	902.896747	1196.878896	-486.187970	915.989030	1134.634407	-512.351384	698.248329	973.942797	-463.263149	
334	  3.340000	711.120169	1009.442224	-209.415296	533.484075	1078.098506	-370.879677	531.997208	1076.089159	-287.252768	703.064071	891.332954	-147.916662	832.089796	827.949883	-173.218989	843.569052	714.136047	-180.128412	605.462698	875.993849	-516.434028	633.753743	746.315761	-498.524311	510.620413	639.396394	-488.225255	845.614613	527.213324	-252.503493	735.149032	509.546922	-197.717904	665.213670	434.803591	-257.774547	464.865688	407.623827	-428.050841	365.247090	379.527176	-483.118402	331.121314	250.144232	-410.476446	481.587281	466.314016	-270.706666	604.061433	267.541582	-276.423607	564.525884	273.223413	-188.899926	140.645710	200.513424	-373.227640	316.121106	 64.966300	-397.911993	264.225633	 53.733912	-473.357031	739.307803	1501.385681	-509.079599	671.564810	1502.886857	-168.735642	767.770096	1464.918605	-302.529818	641.569916	1541.152943	-365.168540	578.380382	1423.943126	-96.458357	494.488372	1371.180110	-141.082339	500.939915	1337.369916	-69.186698	447.948690	1256.915060	-39.039103	424.743816	1245.933862	-115.679144	734.879956	1405.427285	-613.880160	681.952484	1316.234755	-630.533538	748.077270	1300.124839	-671.619697	776.284124	1224.131194	-711.474626	721.123015	1173.274815	-684.683978	463.760266	1176.629802	-26.271180	579.283520	1011.541934	-58.613426	512.624330	989.131205	-49.797845	864.112904	1195.030749	-624.706427	909.531866	1222.243788	-476.785406	925.737495	1159.497032	-499.474414	702.818808	978.729739	-460.494310	
335	  3.350000	714.319373	1020.473911	-209.561126	538.826393	1084.326112	-374.311775	536.197178	1083.166787	-290.401460	706.632137	905.218721	-147.667764	834.637831	840.998727	-172.918613	848.196405	727.001422	-181.616099	604.933329	881.284189	-516.907879	625.169741	751.184868	-498.388338	493.721148	652.743083	-487.815802	866.834606	531.962959	-249.825587	757.521512	503.772935	-196.667341	698.343991	418.255829	-254.784958	438.241135	422.706640	-430.529028	337.553477	397.548211	-485.276905	306.134597	264.438243	-417.615510	512.155788	427.053590	-272.208008	659.456962	245.711626	-271.467368	617.450939	247.660084	-184.827933	119.945368	226.452852	-378.356180	274.268941	 66.738475	-399.140943	220.159934	 59.078085	-473.074094	743.209496	1510.396422	-504.545605	668.508071	1510.693127	-167.078211	766.993386	1473.554545	-298.412751	642.654719	1548.141369	-363.617780	573.348481	1434.760139	-96.819788	489.375181	1383.586470	-143.106478	494.409461	1348.802480	-70.658844	438.716560	1269.703497	-42.458690	417.465363	1259.069377	-119.993346	742.483301	1414.356993	-609.224187	689.737623	1325.498352	-626.710794	756.895249	1308.603301	-665.739992	786.214735	1232.832662	-705.933842	731.447826	1181.364249	-677.987514	453.912715	1189.790387	-28.519376	569.993389	1024.567222	-56.247392	503.023634	1001.901925	-48.514914	872.683468	1210.811351	-616.136058	913.216704	1246.473053	-468.339219	932.107186	1183.358188	-487.379863	707.731601	982.905574	-458.482841	
336	  3.360000	717.834260	1029.350750	-210.682395	543.653528	1090.448851	-377.704506	540.249488	1089.779681	-293.504613	708.368322	918.625229	-147.811574	836.147382	851.517137	-172.027986	851.085039	736.859395	-181.876698	603.945684	886.887132	-517.994379	616.627990	756.638102	-498.927785	478.946508	666.119906	-487.101325	886.453451	534.721770	-246.932587	780.253976	495.473686	-195.184275	732.471066	402.119198	-252.196257	415.646403	437.605090	-432.035913	314.546034	415.283243	-486.928371	283.434007	280.168712	-423.037597	546.834020	388.528302	-272.619511	714.779164	226.158220	-266.654997	671.385543	224.178247	-181.185648	102.431987	253.990236	-383.022341	236.890949	 73.027627	-402.375693	179.096609	 70.099931	-473.500708	746.756227	1518.478632	-499.471670	666.173406	1517.512499	-165.667517	766.287132	1481.078575	-294.324248	643.916385	1554.546486	-361.847664	569.025325	1444.511321	-97.877752	485.347636	1395.701439	-144.895279	488.760126	1359.479710	-72.222049	430.665260	1281.631821	-45.780683	411.449619	1271.118996	-124.149292	749.505259	1423.094559	-604.495299	696.772062	1334.784560	-623.254393	764.990165	1317.533713	-661.071860	795.510237	1241.799151	-701.317850	741.252126	1189.523406	-673.305586	445.156580	1202.034048	-30.657163	562.428637	1036.642733	-53.532745	494.999581	1013.687322	-47.122315	879.406094	1225.969008	-608.254637	914.336719	1268.594040	-460.856466	935.527240	1205.231653	-476.291002	711.520618	987.016407	-457.889747	
337	  3.370000	721.187851	1035.384951	-213.221081	547.218846	1096.343982	-380.646779	543.326500	1096.134581	-296.370603	709.291689	929.128503	-148.704431	836.971966	859.280324	-170.875924	852.544518	743.612613	-181.279636	602.479560	892.717915	-519.487387	609.079383	762.531461	-500.062596	467.613874	678.122382	-486.784223	904.045086	535.746352	-244.647409	803.232512	484.816795	-193.368729	766.930398	386.122450	-249.793939	397.075299	451.168799	-432.774729	295.860530	432.219400	-488.049996	261.183814	297.564437	-425.911518	584.688259	350.734192	-271.546335	769.560960	208.417761	-262.482552	726.336348	202.424780	-178.133544	 84.075516	282.247374	-385.170908	202.405696	 86.163413	-407.660222	140.839517	 88.879844	-475.396716	749.907106	1525.455260	-494.043794	664.657970	1523.019285	-164.321323	765.901520	1487.106143	-290.331582	645.232011	1560.100185	-359.857655	565.338887	1452.740374	-99.234942	482.324106	1406.886820	-146.403514	483.968564	1369.088197	-73.787412	423.751905	1292.283887	-48.865307	406.461699	1281.703821	-127.877820	755.804436	1431.292447	-599.896253	703.165152	1343.558507	-620.700416	772.498287	1326.529665	-657.757680	804.076778	1250.555912	-697.578194	750.436868	1197.353443	-670.495828	437.453710	1212.905092	-32.577793	556.327595	1047.006621	-50.814252	488.530277	1024.110693	-45.653976	884.358332	1239.872326	-601.142456	913.424998	1287.647067	-454.295813	936.593525	1224.249908	-466.450265	713.806142	990.891714	-458.402624	
338	  3.380000	723.874735	1038.711144	-216.667882	549.695477	1101.959766	-382.890342	545.437297	1102.255674	-298.721791	709.852897	934.856308	-150.022024	837.357366	864.197268	-169.772954	852.641087	747.206743	-180.402179	600.991629	898.688764	-520.830353	603.969608	768.476642	-501.441377	460.752936	687.717451	-487.594848	919.095728	534.924433	-242.727372	825.585697	472.227899	-190.996563	801.149377	369.937659	-247.249447	381.943215	462.961275	-433.537769	280.195436	448.748441	-488.733339	238.640636	316.370561	-426.773061	624.819898	313.258175	-269.138848	823.822128	192.188720	-259.119304	782.114491	182.226244	-175.334766	 63.150381	311.355242	-383.751525	168.505567	106.522251	-413.525302	104.734400	115.442014	-478.554464	752.717374	1531.424086	-488.881887	663.972085	1527.077593	-162.745889	765.980804	1491.612781	-286.614142	646.424769	1564.690512	-357.720289	562.373737	1459.544128	-100.001816	480.185239	1416.529482	-147.681037	480.008173	1377.299230	-75.258190	417.864667	1301.177353	-51.576232	402.438291	1290.429732	-130.940553	761.360398	1438.758261	-595.718525	709.020642	1351.492599	-619.219589	779.373456	1335.044482	-655.400345	811.674604	1258.749471	-694.598203	758.432520	1204.773147	-668.924895	430.845360	1221.995927	-34.111517	551.425838	1055.517221	-47.901098	483.578162	1032.836674	-44.059962	887.874960	1251.934930	-595.062032	911.078620	1302.687159	-448.537308	936.049739	1239.546562	-458.087008	715.154418	994.432620	-459.275405	
